<?xml version="1.0" encoding="UTF-8"?>
<svg width="226px" height="71px" viewBox="0 0 226 71" version="1.1" xmlns="http://www.w3.org/2000/svg" xmlns:xlink="http://www.w3.org/1999/xlink">
    <title>button-kickstarter</title>
    <defs>
        <rect id="path-1" x="0" y="0" width="226" height="71" rx="12"></rect>
        <filter x="-0.9%" y="-2.8%" width="101.8%" height="105.6%" filterUnits="objectBoundingBox" id="filter-2">
            <feGaussianBlur stdDeviation="1.5" in="SourceAlpha" result="shadowBlurInner1"></feGaussianBlur>
            <feOffset dx="0" dy="1" in="shadowBlurInner1" result="shadowOffsetInner1"></feOffset>
            <feComposite in="shadowOffsetInner1" in2="SourceAlpha" operator="arithmetic" k2="-1" k3="1" result="shadowInnerInner1"></feComposite>
            <feColorMatrix values="0 0 0 0 1   0 0 0 0 1   0 0 0 0 1  0 0 0 0.5 0" type="matrix" in="shadowInnerInner1"></feColorMatrix>
        </filter>
    </defs>
    <g id="Page-1" stroke="none" stroke-width="1" fill="none" fill-rule="evenodd">
        <g id="Desktop-HD" transform="translate(-1140.000000, -495.000000)">
            <g id="button-kickstarter" transform="translate(1140.000000, 495.000000)">
                <g id="Rectangle">
                    <use fill="#85C443" fill-rule="evenodd" xlink:href="#path-1"></use>
                    <use fill="black" fill-opacity="1" filter="url(#filter-2)" xlink:href="#path-1"></use>
                </g>
                <path d="M25.6389337,56.9513946 C27.5204668,56.9513946 29.088411,55.294083 29.088411,53.3118082 C29.088411,52.5643932 28.8688988,51.914467 28.4298744,51.3620298 L24.1650661,45.7076723 L27.6772612,40.4107742 C28.0222089,39.8908333 28.2103622,39.2084109 28.2103622,38.5259884 C28.2103622,36.6087063 26.6110591,34.9513946 24.729526,34.9513946 C23.5692473,34.9513946 22.5657629,35.5363282 21.8758675,36.6087063 L18.0500835,42.4580416 L18.0500835,38.9809367 C18.0500835,37.6810844 17.7992124,36.8686768 17.1406758,36.153758 C16.5134981,35.4063429 15.5413727,34.9513946 14.5378884,34.9513946 C12.468202,34.9513946 11.088411,36.57621 11.088411,38.9484404 L11.088411,52.8568599 C11.088411,55.3590756 12.4368431,56.9513946 14.6006061,56.9513946 C16.6702926,56.9513946 18.0500835,55.3265793 18.0500835,52.8243636 L18.0500835,49.0872883 L23.2242995,55.8790165 C23.7260417,56.5289426 24.6668082,56.9513946 25.6389337,56.9513946 Z M35.588411,56.9513946 C36.5111383,56.9513946 37.5293201,56.4964463 38.1975019,55.7490313 C38.8338656,55.0341125 39.088411,54.1892085 39.088411,52.8243636 L39.088411,39.4033887 C39.088411,37.6485881 38.8656837,36.9011731 38.1656837,36.0887654 C37.5293201,35.3738466 36.5747747,34.9513946 35.5565928,34.9513946 C34.538411,34.9513946 33.6156837,35.3738466 32.9793201,36.1212617 C32.2475019,36.9336694 32.088411,37.5835955 32.088411,39.4033887 L32.088411,52.8243636 C32.088411,54.3191937 32.3111383,55.0666088 32.9793201,55.8140239 C33.5838656,56.4964463 34.6338656,56.9513946 35.588411,56.9513946 Z M52.3543685,56.9513946 C55.0671344,56.9513946 57.7160706,55.9456803 59.7905387,54.1856803 C61.2905387,52.8971089 62.088411,51.5771089 62.088411,50.3199661 C62.088411,48.5285375 60.4288366,46.9256803 58.5777727,46.9256803 C57.6841557,46.9256803 56.7267089,47.3342518 56.1522408,47.9313946 L55.4181983,48.6856803 C54.588411,49.5656803 53.4394749,50.0685375 52.2905387,50.0685375 C49.9926663,50.0685375 48.1416025,48.2456803 48.1416025,45.9828232 C48.1416025,43.6885375 49.9926663,41.8971089 52.3224536,41.8971089 C53.4713897,41.8971089 54.588411,42.3371089 55.3543685,43.1542518 L56.3756451,44.2542518 C56.8543685,44.7571089 57.7479855,45.1028232 58.5777727,45.1028232 C60.5245812,45.1028232 62.088411,43.5313946 62.088411,41.6456803 C62.088411,40.2628232 61.2267089,38.8485375 59.5033046,37.4971089 C57.4607514,35.8313946 54.9713897,34.9513946 52.3862834,34.9513946 C46.1628791,34.9513946 41.088411,39.8856803 41.088411,45.9828232 C41.088411,52.0485375 46.1309642,56.9513946 52.3543685,56.9513946 Z M79.6389337,56.9513946 C81.5204668,56.9513946 83.088411,55.294083 83.088411,53.3118082 C83.088411,52.5643932 82.8688988,51.914467 82.4298744,51.3620298 L78.1650661,45.7076723 L81.6772612,40.4107742 C82.0222089,39.8908333 82.2103622,39.2084109 82.2103622,38.5259884 C82.2103622,36.6087063 80.6110591,34.9513946 78.729526,34.9513946 C77.5692473,34.9513946 76.5657629,35.5363282 75.8758675,36.6087063 L72.0500835,42.4580416 L72.0500835,38.9809367 C72.0500835,37.6810844 71.7992124,36.8686768 71.1406758,36.153758 C70.5134981,35.4063429 69.5413727,34.9513946 68.5378884,34.9513946 C66.468202,34.9513946 65.088411,36.57621 65.088411,38.9484404 L65.088411,52.8568599 C65.088411,55.3590756 66.4368431,56.9513946 68.6006061,56.9513946 C70.6702926,56.9513946 72.0500835,55.3265793 72.0500835,52.8243636 L72.0500835,49.0872883 L77.2242995,55.8790165 C77.7260417,56.5289426 78.6668082,56.9513946 79.6389337,56.9513946 Z" id="kick" fill="#022600" fill-rule="nonzero"></path>
                <path d="M94.3752455,56.7949411 C96.994008,56.7949411 98.9101756,56.1035125 100.347301,54.6892268 C101.624746,53.4006554 102.359277,51.5777982 102.359277,49.6920839 C102.359277,47.7120839 101.528938,45.8263697 100.219557,44.7577982 C99.2295369,43.9406554 97.504986,43.0920839 95.6846267,42.5577982 C94.0239481,42.0235125 93.5768423,41.7406554 93.5768423,41.1120839 C93.5768423,40.6720839 93.9600758,40.2949411 94.4071816,40.2949411 C94.7904152,40.2949411 95.1417126,40.4520839 95.8762435,41.0492268 C97.0578802,41.9292268 97.8243473,42.2435125 98.7824311,42.2435125 C100.379238,42.2435125 101.528938,41.0492268 101.528938,39.3835125 C101.528938,36.8063697 98.5269421,34.7949411 94.6946068,34.7949411 C90.0638683,34.7949411 86.8702555,37.5920839 86.8702555,41.6777982 C86.8702555,44.6006554 88.4031896,46.5806554 91.500994,47.6492268 C92.0758443,47.8692268 92.6506946,48.0577982 93.2255449,48.2463697 C94.3433094,48.6549411 94.4391178,48.7177982 94.6307345,48.8435125 C95.0139681,49.0949411 95.1736487,49.3463697 95.1736487,49.7235125 C95.1736487,50.2577982 94.8223513,50.6349411 94.2794371,50.6349411 C93.7684591,50.6349411 93.5768423,50.5092268 92.0439082,49.3463697 C91.1496966,48.6235125 90.4151657,48.3406554 89.5528902,48.3406554 C87.7644671,48.3406554 86.3592774,49.7235125 86.3592774,51.4835125 C86.3592774,54.4692268 89.8403154,56.7949411 94.3752455,56.7949411 Z M112.407235,56.7949411 C113.622155,56.7949411 114.677217,56.2056554 115.316649,55.1580363 C115.764251,54.4050601 115.924109,53.684822 115.924109,52.3752982 L115.924109,41.5062506 L117.490716,41.5062506 C118.769579,41.5062506 119.664784,41.2443458 120.208301,40.7205363 C120.911675,40.0657744 121.359277,39.0836316 121.359277,38.1342268 C121.359277,36.4318458 120.176329,35.0895839 118.481835,34.8604173 C118.155268,34.8089717 118.08529,34.7979476 117.108793,34.7955853 L116.288873,34.7949411 C116.223027,34.7949411 116.154761,34.7949411 116.083967,34.7949411 L108.986276,34.7949411 C106.204748,34.7949411 105.917004,34.8276792 105.181658,35.1550601 C104.158567,35.6133935 103.359277,36.9229173 103.359277,38.1669649 C103.359277,39.0508935 103.710965,39.8693458 104.350396,40.5568458 C104.989828,41.2116078 105.789118,41.5062506 107.004038,41.5062506 L108.890361,41.5062506 L108.890361,52.4407744 C108.890361,53.9139887 109.018247,54.5360125 109.497821,55.2889887 C110.169224,56.2383935 111.224286,56.7949411 112.407235,56.7949411 Z M136.773124,56.7949411 C138.743893,56.7949411 140.359277,55.202622 140.359277,53.2528436 C140.359277,52.7004064 140.230047,52.0829765 139.939277,51.5305393 L133.154662,36.9721937 C132.508508,35.6073488 131.280816,34.7949411 129.82697,34.7949411 C128.405431,34.7949411 127.177739,35.6073488 126.563893,36.9396974 L119.811585,51.3355615 C119.520816,51.9529913 119.359277,52.6029175 119.359277,53.2203473 C119.359277,55.2351183 120.910047,56.7949411 122.880816,56.7949411 C124.593124,56.7949411 125.659277,55.9175408 126.563893,53.8052808 L133.154662,53.8052808 C134.156201,56.0150297 135.125431,56.7949411 136.773124,56.7949411 Z M131.359277,48.7949411 L129.359277,48.7949411 L130.359277,45.7949411 L131.359277,48.7949411 Z M155.921777,56.7949411 C157.859277,56.7949411 159.359277,55.2562506 159.359277,53.2592268 C159.359277,52.5062506 159.140527,51.6550601 158.703027,50.934822 L157.078027,48.2175601 C158.671777,46.3514887 159.296777,44.747322 159.296777,42.6520839 C159.296777,39.1163697 157.046777,36.0717268 153.828027,35.122322 C152.921777,34.8931554 152.171777,34.7949411 150.484277,34.7949411 L147.609277,34.7949411 C145.953027,34.7949411 145.265527,35.0241078 144.484277,35.7443458 C143.671777,36.497322 143.359277,37.3812506 143.359277,38.9526792 L143.359277,52.4080363 C143.359277,53.7830363 143.609277,54.7324411 144.171777,55.4854173 C144.796777,56.3038697 145.828027,56.7949411 146.859277,56.7949411 C148.765527,56.7949411 150.234277,55.2235125 150.234277,53.1610125 L150.234277,50.1818458 L153.078027,55.1252982 C153.703027,56.2056554 154.703027,56.7949411 155.921777,56.7949411 Z M151.007926,43.7933382 L150.359277,43.7933382 L150.359277,41.7949411 C150.629548,41.8226966 150.845764,41.8226966 150.980899,41.8226966 C151.872791,41.7949411 152.359277,42.1557628 152.359277,42.8218952 C152.359277,43.4880275 151.899818,43.8210937 151.007926,43.7933382 Z M169.407235,56.7949411 C170.622155,56.7949411 171.677217,56.2056554 172.316649,55.1580363 C172.764251,54.4050601 172.924109,53.684822 172.924109,52.3752982 L172.924109,41.5062506 L174.490716,41.5062506 C175.769579,41.5062506 176.664784,41.2443458 177.208301,40.7205363 C177.911675,40.0657744 178.359277,39.0836316 178.359277,38.1342268 C178.359277,36.4318458 177.176329,35.0895839 175.481835,34.8604173 C175.155268,34.8089717 175.08529,34.7979476 174.108793,34.7955853 L173.288873,34.7949411 C173.223027,34.7949411 173.154761,34.7949411 173.083967,34.7949411 L165.986276,34.7949411 C163.204748,34.7949411 162.917004,34.8276792 162.181658,35.1550601 C161.158567,35.6133935 160.359277,36.9229173 160.359277,38.1669649 C160.359277,39.0508935 160.710965,39.8693458 161.350396,40.5568458 C161.989828,41.2116078 162.789118,41.5062506 164.004038,41.5062506 L165.890361,41.5062506 L165.890361,52.4407744 C165.890361,53.9139887 166.018247,54.5360125 166.497821,55.2889887 C167.169224,56.2383935 168.224286,56.7949411 169.407235,56.7949411 Z M191.377055,56.7949411 C192.932611,56.7949411 193.523722,56.6375198 194.208166,56.0708032 C194.892611,55.4726023 195.328166,54.5280745 195.328166,53.5520625 C195.328166,52.6075348 194.923722,51.7259756 194.208166,51.0962904 C193.492611,50.4980895 192.839277,50.309184 191.345944,50.309184 L188.203722,50.309184 L188.203722,48.7349711 L190.6615,48.7349711 C191.750389,48.7349711 192.248166,48.609034 192.777055,48.1997387 C193.337055,47.7274748 193.679277,47.0033369 193.679277,46.2162304 C193.679277,44.7364703 192.590389,43.7289741 190.910389,43.7289741 L188.203722,43.7289741 L188.203722,42.2806982 L191.625944,42.2806982 C192.9015,42.2806982 193.617055,42.0603084 194.239277,41.525076 C194.954833,40.9268751 195.359277,39.9823474 195.359277,38.9748511 C195.359277,37.5265753 194.425944,36.3301735 192.994833,35.9523624 C192.528166,35.8264253 192.3415,35.7949411 190.3815,35.7949411 L186.274833,35.7949411 C184.252611,35.7949411 184.097055,35.8264253 183.319277,36.1412679 C182.603722,36.4561105 181.950389,37.0857957 181.670389,37.8729021 C181.402055,38.5065228 181.362302,38.7353303 181.359455,40.3050815 L181.359277,51.9148811 C181.359277,53.0872949 181.379665,53.4344071 181.436946,53.7579392 L181.458721,53.8724533 C181.466508,53.9111687 181.474833,53.9508631 181.483722,53.9928421 C181.7015,55.2207282 182.385944,56.0708032 183.443722,56.5115828 C184.006685,56.7214778 184.428554,56.7885871 185.838078,56.7945025 L191.377055,56.7949411 Z M210.921777,56.7949411 C212.859277,56.7949411 214.359277,55.2562506 214.359277,53.2592268 C214.359277,52.5062506 214.140527,51.6550601 213.703027,50.934822 L212.078027,48.2175601 C213.671777,46.3514887 214.296777,44.747322 214.296777,42.6520839 C214.296777,39.1163697 212.046777,36.0717268 208.828027,35.122322 C207.921777,34.8931554 207.171777,34.7949411 205.484277,34.7949411 L202.609277,34.7949411 C200.953027,34.7949411 200.265527,35.0241078 199.484277,35.7443458 C198.671777,36.497322 198.359277,37.3812506 198.359277,38.9526792 L198.359277,52.4080363 C198.359277,53.7830363 198.609277,54.7324411 199.171777,55.4854173 C199.796777,56.3038697 200.828027,56.7949411 201.859277,56.7949411 C203.765527,56.7949411 205.234277,55.2235125 205.234277,53.1610125 L205.234277,50.1818458 L208.078027,55.1252982 C208.703027,56.2056554 209.703027,56.7949411 210.921777,56.7949411 Z M206.007926,43.7933382 L205.359277,43.7933382 L205.359277,41.7949411 C205.629548,41.8226966 205.845764,41.8226966 205.980899,41.8226966 C206.872791,41.7949411 207.359277,42.1557628 207.359277,42.8218952 C207.359277,43.4880275 206.899818,43.8210937 206.007926,43.7933382 Z" id="STARTER" fill="#FFFFFF" fill-rule="nonzero"></path>
                <path d="M61.6382343,25.152 C64.1462343,25.152 65.8182343,23.651 65.8182343,21.124 L65.8182343,18.16 C65.8182343,18.027 65.7232343,17.932 65.5902343,17.932 L61.7902343,17.932 C61.6572343,17.932 61.5622343,18.027 61.5622343,18.16 L61.5622343,19.547 C61.5622343,19.68 61.6572343,19.775 61.7902343,19.775 L63.5192343,19.775 C63.5762343,19.775 63.6142343,19.813 63.6142343,19.87 L63.6142343,21.371 C63.6142343,22.53 62.8542343,23.252 61.6952343,23.252 C60.4982343,23.252 59.6812343,22.435 59.6812343,21.219 L59.6812343,15.481 C59.6812343,14.265 60.4602343,13.448 61.6382343,13.448 C62.8542343,13.448 63.6142343,14.265 63.6142343,15.386 L63.6142343,15.823 C63.6142343,15.956 63.7092343,16.051 63.8422343,16.051 L65.5902343,16.051 C65.7232343,16.051 65.8182343,15.956 65.8182343,15.823 L65.8182343,15.386 C65.8182343,13.125 64.1462343,11.548 61.6382343,11.548 C59.1492343,11.548 57.4772343,13.125 57.4772343,15.519 L57.4772343,21.181 C57.4772343,23.575 59.1492343,25.152 61.6382343,25.152 Z M75.4753521,25 C75.6083521,25 75.7033521,24.905 75.7033521,24.772 L75.7033521,23.328 C75.7033521,23.195 75.6083521,23.1 75.4753521,23.1 L70.1933521,23.1 C70.1363521,23.1 70.0983521,23.062 70.0983521,23.005 L70.0983521,19.357 C70.0983521,19.3 70.1363521,19.262 70.1933521,19.262 L73.5753521,19.262 C73.7083521,19.262 73.8033521,19.167 73.8033521,19.034 L73.8033521,17.59 C73.8033521,17.457 73.7083521,17.362 73.5753521,17.362 L70.1933521,17.362 C70.1363521,17.362 70.0983521,17.324 70.0983521,17.267 L70.0983521,13.695 C70.0983521,13.638 70.1363521,13.6 70.1933521,13.6 L75.4753521,13.6 C75.6083521,13.6 75.7033521,13.505 75.7033521,13.372 L75.7033521,11.928 C75.7033521,11.795 75.6083521,11.7 75.4753521,11.7 L68.1223521,11.7 C67.9893521,11.7 67.8943521,11.795 67.8943521,11.928 L67.8943521,24.772 C67.8943521,24.905 67.9893521,25 68.1223521,25 L75.4753521,25 Z M82.1684699,25 C82.3014699,25 82.3964699,24.905 82.3964699,24.772 L82.3964699,13.714 C82.3964699,13.657 82.4344699,13.619 82.4914699,13.619 L85.4364699,13.619 C85.5694699,13.619 85.6644699,13.524 85.6644699,13.391 L85.6644699,11.928 C85.6644699,11.795 85.5694699,11.7 85.4364699,11.7 L77.2664699,11.7 C77.1334699,11.7 77.0384699,11.795 77.0384699,11.928 L77.0384699,13.391 C77.0384699,13.524 77.1334699,13.619 77.2664699,13.619 L80.0974699,13.619 C80.1544699,13.619 80.1924699,13.657 80.1924699,13.714 L80.1924699,24.772 C80.1924699,24.905 80.2874699,25 80.4204699,25 L82.1684699,25 Z M93.2937055,25 C93.4267055,25 93.5217055,24.905 93.5217055,24.772 L93.5217055,11.928 C93.5217055,11.795 93.4267055,11.7 93.2937055,11.7 L91.5457055,11.7 C91.4127055,11.7 91.3177055,11.795 91.3177055,11.928 L91.3177055,24.772 C91.3177055,24.905 91.4127055,25 91.5457055,25 L93.2937055,25 Z M100.461823,25 C100.594823,25 100.689823,24.905 100.689823,24.772 L100.689823,13.714 C100.689823,13.657 100.727823,13.619 100.784823,13.619 L103.729823,13.619 C103.862823,13.619 103.957823,13.524 103.957823,13.391 L103.957823,11.928 C103.957823,11.795 103.862823,11.7 103.729823,11.7 L95.5598233,11.7 C95.4268233,11.7 95.3318233,11.795 95.3318233,11.928 L95.3318233,13.391 C95.3318233,13.524 95.4268233,13.619 95.5598233,13.619 L98.3908233,13.619 C98.4478233,13.619 98.4858233,13.657 98.4858233,13.714 L98.4858233,24.772 C98.4858233,24.905 98.5808233,25 98.7138233,25 L100.461823,25 Z M111.568059,25 C111.701059,25 111.796059,24.905 111.796059,24.772 L111.777059,16.545 C111.777059,16.45 111.853059,16.431 111.891059,16.526 L116.071059,24.829 C116.128059,24.943 116.223059,25 116.337059,25 L118.085059,25 C118.218059,25 118.313059,24.905 118.313059,24.772 L118.313059,11.928 C118.313059,11.795 118.218059,11.7 118.085059,11.7 L116.356059,11.7 C116.223059,11.7 116.128059,11.795 116.128059,11.928 L116.128059,20.117 C116.128059,20.212 116.052059,20.231 116.014059,20.136 L111.853059,11.871 C111.796059,11.757 111.701059,11.7 111.587059,11.7 L109.839059,11.7 C109.706059,11.7 109.611059,11.795 109.611059,11.928 L109.611059,24.772 C109.611059,24.905 109.706059,25 109.839059,25 L111.568059,25 Z M124.683177,25.171 C127.248177,25.171 128.939177,23.518 128.939177,21.029 L128.939177,15.671 C128.939177,13.201 127.248177,11.548 124.683177,11.548 C122.156177,11.548 120.465177,13.201 120.465177,15.671 L120.465177,21.029 C120.465177,23.518 122.156177,25.171 124.683177,25.171 Z M124.683177,23.271 C123.467177,23.271 122.669177,22.397 122.669177,21.124 L122.669177,15.614 C122.669177,14.322 123.467177,13.448 124.683177,13.448 C125.918177,13.448 126.735177,14.322 126.735177,15.614 L126.735177,21.124 C126.735177,22.397 125.918177,23.271 124.683177,23.271 Z M134.872294,25 C135.005294,25 135.100294,24.943 135.119294,24.791 L136.772294,16.222 C136.791294,16.146 136.867294,16.146 136.886294,16.222 L138.653294,24.791 C138.672294,24.924 138.767294,25 138.900294,25 L140.591294,25 C140.724294,25 140.819294,24.924 140.838294,24.791 L143.688294,11.947 C143.726294,11.776 143.631294,11.7 143.479294,11.7 L141.712294,11.7 C141.579294,11.7 141.484294,11.776 141.465294,11.909 L139.793294,20.212 C139.774294,20.307 139.698294,20.307 139.679294,20.212 L137.931294,11.909 C137.912294,11.776 137.817294,11.7 137.684294,11.7 L136.012294,11.7 C135.879294,11.7 135.784294,11.757 135.765294,11.909 L134.131294,20.193 C134.112294,20.288 134.036294,20.288 134.017294,20.212 L132.250294,11.909 C132.231294,11.776 132.136294,11.7 132.003294,11.7 L130.179294,11.7 C130.027294,11.7 129.932294,11.776 129.970294,11.947 L132.991294,24.81 C133.029294,24.943 133.105294,25 133.238294,25 L134.872294,25 Z M153.10353,25.171 C155.66853,25.171 157.35953,23.518 157.35953,21.029 L157.35953,15.671 C157.35953,13.201 155.66853,11.548 153.10353,11.548 C150.57653,11.548 148.88553,13.201 148.88553,15.671 L148.88553,21.029 C148.88553,23.518 150.57653,25.171 153.10353,25.171 Z M153.10353,23.271 C151.88753,23.271 151.08953,22.397 151.08953,21.124 L151.08953,15.614 C151.08953,14.322 151.88753,13.448 153.10353,13.448 C154.33853,13.448 155.15553,14.322 155.15553,15.614 L155.15553,21.124 C155.15553,22.397 154.33853,23.271 153.10353,23.271 Z M161.487648,25 C161.620648,25 161.715648,24.905 161.715648,24.772 L161.696648,16.545 C161.696648,16.45 161.772648,16.431 161.810648,16.526 L165.990648,24.829 C166.047648,24.943 166.142648,25 166.256648,25 L168.004648,25 C168.137648,25 168.232648,24.905 168.232648,24.772 L168.232648,11.928 C168.232648,11.795 168.137648,11.7 168.004648,11.7 L166.275648,11.7 C166.142648,11.7 166.047648,11.795 166.047648,11.928 L166.047648,20.117 C166.047648,20.212 165.971648,20.231 165.933648,20.136 L161.772648,11.871 C161.715648,11.757 161.620648,11.7 161.506648,11.7 L159.758648,11.7 C159.625648,11.7 159.530648,11.795 159.530648,11.928 L159.530648,24.772 C159.530648,24.905 159.625648,25 159.758648,25 L161.487648,25 Z" id="GETITNOWON" fill="#FFFFFF" fill-rule="nonzero"></path>
            </g>
        </g>
    </g>
</svg>